grf
version=1
nRows=9
nColumns=37
inDegrees=no
endheader
time	ground_force_1_vx	ground_force_1_vy	ground_force_1_vz	ground_force_1_px	ground_force_1_py	ground_force_1_pz	ground_moment_1_mx	ground_moment_1_my	ground_moment_1_mz	ground_force_2_vx	ground_force_2_vy	ground_force_2_vz	ground_force_2_px	ground_force_2_py	ground_force_2_pz	ground_moment_2_mx	ground_moment_2_my	ground_moment_2_mz	ground_force_3_vx	ground_force_3_vy	ground_force_3_vz	ground_force_3_px	ground_force_3_py	ground_force_3_pz	ground_moment_3_mx	ground_moment_3_my	ground_moment_3_mz	ground_force_4_vx	ground_force_4_vy	ground_force_4_vz	ground_force_4_px	ground_force_4_py	ground_force_4_pz	ground_moment_4_mx	ground_moment_4_my	ground_moment_4_mz
      0.00000000	      0.00000000	     -0.00000000	      0.00000000	      0.00000000	      0.00000000	      0.00000000	      0.00000000	      0.00000000	      0.00000000	     -8.83184052	     19.68893242	   -102.90156555	   -206.65033986	  -1134.96549223	      0.00000000	      0.00000000	     -0.00000000	   -574.62496814	      4.02481154	   -133.29377782	   -789.49645996	   -289.77166010	   -671.30759550	      0.00000000	      0.00000000	      0.00000000	  -4827.91467989	      0.00000000	     -0.00000000	      0.00000000	      0.00000000	      0.00000000	      0.00000000	      0.00000000	      0.00000000	      0.00000000
      0.01000000	      0.00000000	     -0.00000000	      0.00000000	      0.00000000	      0.00000000	      0.00000000	      0.00000000	      0.00000000	      0.00000000	     -0.73058975	     23.66771698	   -135.25796509	   -221.12936322	  -1140.13984395	      0.00000000	      0.00000000	      0.00000000	     21.89165847	      3.88883211	   -130.65165744	   -769.08666992	   -289.62116661	   -671.58033904	      0.00000000	      0.00000000	     -0.00000000	  -4770.59345806	      0.00000000	     -0.00000000	      0.00000000	      0.00000000	      0.00000000	      0.00000000	      0.00000000	      0.00000000	      0.00000000
      0.02000000	      0.00000000	     -0.00000000	      0.00000000	      0.00000000	      0.00000000	      0.00000000	      0.00000000	      0.00000000	      0.00000000	      6.07297373	     31.25417137	   -175.22996521	   -232.07630006	  -1139.44345012	      0.00000000	      0.00000000	      0.00000000	    692.77098932	      3.17641086	   -126.06922940	   -741.38397217	   -288.73839672	   -671.45424219	      0.00000000	      0.00000000	     -0.00000000	  -4502.42336440	      0.00000000	     -0.00000000	      0.00000000	      0.00000000	      0.00000000	      0.00000000	      0.00000000	      0.00000000	      0.00000000
      0.03000000	      0.00000000	     -0.00000000	      0.00000000	      0.00000000	      0.00000000	      0.00000000	      0.00000000	      0.00000000	      0.00000000	      6.38783884	     36.88234711	   -221.96495056	   -239.08601122	  -1135.74969442	      0.00000000	      0.00000000	      0.00000000	   1250.50452721	      2.75002389	   -119.42836023	   -703.86517334	   -288.10260340	   -671.63881719	      0.00000000	      0.00000000	     -0.00000000	  -4246.09862031	      0.00000000	     -0.00000000	      0.00000000	      0.00000000	      0.00000000	      0.00000000	      0.00000000	      0.00000000	      0.00000000
      0.04000000	      0.00000000	     -0.00000000	      0.00000000	      0.00000000	      0.00000000	      0.00000000	      0.00000000	      0.00000000	      0.00000000	      1.83808613	     38.65886688	   -272.08843994	   -245.67058683	  -1130.68026448	      0.00000000	      0.00000000	      0.00000000	   2283.21901591	      2.01670585	   -110.69674700	   -660.71215820	   -286.81075157	   -671.14275040	      0.00000000	      0.00000000	     -0.00000000	  -3804.37093058	      0.00000000	     -0.00000000	      0.00000000	      0.00000000	      0.00000000	      0.00000000	      0.00000000	      0.00000000	      0.00000000
      0.05000000	      0.00000000	     -0.00000000	      0.00000000	      0.00000000	      0.00000000	      0.00000000	      0.00000000	      0.00000000	      0.00000000	     -2.64502382	     38.14781189	   -321.08276367	   -250.85316027	  -1130.03720854	      0.00000000	      0.00000000	      0.00000000	   2896.09193940	      1.84475672	   -100.89952866	   -609.83312988	   -285.58740612	   -671.80273650	      0.00000000	      0.00000000	     -0.00000000	  -3436.73380424	      0.00000000	     -0.00000000	      0.00000000	      0.00000000	      0.00000000	      0.00000000	      0.00000000	      0.00000000	      0.00000000
      0.06000000	      0.00000000	     -0.00000000	      0.00000000	      0.00000000	      0.00000000	      0.00000000	      0.00000000	      0.00000000	      0.00000000	     -3.33821177	     38.59824753	   -364.27841187	   -254.96986556	  -1126.85044545	      0.00000000	      0.00000000	      0.00000000	   3161.82696429	      2.27826812	    -89.80875417	   -553.80853271	   -284.47008821	   -671.79518010	      0.00000000	      0.00000000	     -0.00000000	  -3217.59613435	      0.00000000	     -0.00000000	      0.00000000	      0.00000000	      0.00000000	      0.00000000	      0.00000000	      0.00000000	      0.00000000
      0.07000000	      0.00000000	     -0.00000000	      0.00000000	      0.00000000	      0.00000000	      0.00000000	      0.00000000	      0.00000000	      0.00000000	     -2.97596860	     44.52711105	   -410.15158081	   -258.66315800	  -1125.96134294	      0.00000000	      0.00000000	      0.00000000	   3361.02952468	      2.41409554	    -77.46393606	   -496.11019897	   -283.26477504	   -671.52134940	      0.00000000	      0.00000000	     -0.00000000	  -2856.39779470	      0.00000000	     -0.00000000	      0.00000000	      0.00000000	      0.00000000	      0.00000000	      0.00000000	      0.00000000	      0.00000000
      0.08000000	      0.00000000	     -0.00000000	      0.00000000	      0.00000000	      0.00000000	      0.00000000	      0.00000000	      0.00000000	      0.00000000	     -3.41328144	     55.55541611	   -460.11679077	   -262.41928163	  -1125.34823909	      0.00000000	      0.00000000	      0.00000000	   3126.60300373	      2.39122943	    -65.00081655	   -437.28903198	   -281.28218766	   -672.31545495	      0.00000000	      0.00000000	     -0.00000000	  -2479.23300050	      0.00000000	     -0.00000000	      0.00000000	      0.00000000	      0.00000000	      0.00000000	      0.00000000	      0.00000000	      0.00000000
